<svg xmlns="http://www.w3.org/2000/svg" width="12" height="12" viewBox="0 0 12 12"><path class="b" d="M3.125,5.5a.361.361,0,0,0-.375.375v4.5a.361.361,0,0,0,.375.375h6.75a.361.361,0,0,0,.375-.375v-4.5A.361.361,0,0,0,9.875,5.5Zm0-.75h6.75A1.12,1.12,0,0,1,11,5.875v4.5A1.12,1.12,0,0,1,9.875,11.5H3.125A1.12,1.12,0,0,1,2,10.375v-4.5A1.12,1.12,0,0,1,3.125,4.75ZM6.5,6.625A.361.361,0,0,1,6.875,7V9.25a.375.375,0,1,1-.75,0V7A.361.361,0,0,1,6.5,6.625ZM8.75,4.75V4a2.25,2.25,0,1,0-4.5,0v.75ZM6.5,1a3,3,0,0,1,3,3V5.5h-6V4a3,3,0,0,1,3-3Z" transform="translate(140.5 745.75)"/></svg>
